<svg width="24" height="25" viewBox="0 0 24 25" fill="none" xmlns="http://www.w3.org/2000/svg">
<g id="arrow-up-small">
<path id="arrow-up (Stroke)" fill-rule="evenodd" clip-rule="evenodd" d="M12 5.83398C12.2652 5.83398 12.5196 5.93934 12.7071 6.12688L18.7071 12.1269C19.0976 12.5174 19.0976 13.1506 18.7071 13.5411C18.3166 13.9316 17.6834 13.9316 17.2929 13.5411L13 9.2482V18.834C13 19.3863 12.5523 19.834 12 19.834C11.4477 19.834 11 19.3863 11 18.834V9.2482L6.70711 13.5411C6.31658 13.9316 5.68342 13.9316 5.29289 13.5411C4.90237 13.1506 4.90237 12.5174 5.29289 12.1269L11.2929 6.12688C11.4804 5.93934 11.7348 5.83398 12 5.83398Z" fill="#CACAD4"/>
</g>
</svg>
