<svg width="24" height="25" viewBox="0 0 24 25" fill="none" xmlns="http://www.w3.org/2000/svg">
<g id="arrow-right-small">
<path id="arrow-right (Stroke)" fill-rule="evenodd" clip-rule="evenodd" d="M19 12.5C19 12.2348 18.8946 11.9804 18.7071 11.7929L12.7071 5.79289C12.3166 5.40237 11.6834 5.40237 11.2929 5.79289C10.9024 6.18342 10.9024 6.81658 11.2929 7.20711L15.5858 11.5L6 11.5C5.44772 11.5 5 11.9477 5 12.5C5 13.0523 5.44772 13.5 6 13.5L15.5858 13.5L11.2929 17.7929C10.9024 18.1834 10.9024 18.8166 11.2929 19.2071C11.6834 19.5976 12.3166 19.5976 12.7071 19.2071L18.7071 13.2071C18.8946 13.0196 19 12.7652 19 12.5Z" fill="#C38753"/>
</g>
</svg>
