<svg width="24" height="25" viewBox="0 0 24 25" fill="none" xmlns="http://www.w3.org/2000/svg">
<g id="linkedin">
<g id="linkedin_2">
<path d="M5.99994 8.83417H2.19047e-05L0 24.8342H5.99994V8.83417Z" fill="#CACAD4"/>
<path d="M3.00121 0.833984C1.34633 0.833984 0 2.1795 0 3.83336C0 5.48795 1.34633 6.83398 3.00121 6.83398C4.65477 6.83398 6 5.48788 6 3.83336C6.00007 2.1795 4.65477 0.833984 3.00121 0.833984Z" fill="#CACAD4"/>
<path d="M18 8.83398C16.0379 8.83398 13.8797 9.86816 13 10.834V8.83398H8V24.8337L13 24.8336V17.834C13 15.1971 14.176 13.834 16 13.834C17.9865 13.834 18 15.681 18 17.834V24.8337H23.9996L24 16.834C24 12.913 23.5024 8.83398 18 8.83398Z" fill="#CACAD4"/>
</g>
</g>
</svg>
